<mxfile host="app.diagrams.net" modified="2022-05-03T15:51:39.855Z" agent="5.0 (X11; Linux x86_64) AppleWebKit/537.36 (KHTML, like Gecko) Chrome/101.0.4951.54 Safari/537.36" etag="VE0KIrHLM-IWnjnV9yOc" version="17.5.0" type="github">
  <diagram id="Qow1nFNtLWxltJESYYf2" name="Page-1">
    <mxGraphModel dx="1635" dy="914" grid="1" gridSize="10" guides="1" tooltips="1" connect="1" arrows="1" fold="1" page="1" pageScale="1" pageWidth="827" pageHeight="1169" math="0" shadow="0">
      <root>
        <mxCell id="0" />
        <mxCell id="1" parent="0" />
        <mxCell id="wpoIIcHl5d0JLE3PpU7M-7" value="" style="edgeStyle=orthogonalEdgeStyle;rounded=0;orthogonalLoop=1;jettySize=auto;html=1;" edge="1" parent="1" source="wpoIIcHl5d0JLE3PpU7M-5" target="wpoIIcHl5d0JLE3PpU7M-6">
          <mxGeometry relative="1" as="geometry" />
        </mxCell>
        <mxCell id="wpoIIcHl5d0JLE3PpU7M-5" value="Start" style="rounded=0;whiteSpace=wrap;html=1;fillColor=#fff2cc;strokeColor=#d6b656;" vertex="1" parent="1">
          <mxGeometry x="260" y="50" width="120" height="60" as="geometry" />
        </mxCell>
        <mxCell id="wpoIIcHl5d0JLE3PpU7M-9" value="" style="edgeStyle=orthogonalEdgeStyle;rounded=0;orthogonalLoop=1;jettySize=auto;html=1;" edge="1" parent="1" source="wpoIIcHl5d0JLE3PpU7M-6" target="wpoIIcHl5d0JLE3PpU7M-8">
          <mxGeometry relative="1" as="geometry" />
        </mxCell>
        <mxCell id="wpoIIcHl5d0JLE3PpU7M-24" style="edgeStyle=orthogonalEdgeStyle;rounded=0;orthogonalLoop=1;jettySize=auto;html=1;" edge="1" parent="1" source="wpoIIcHl5d0JLE3PpU7M-6" target="wpoIIcHl5d0JLE3PpU7M-10">
          <mxGeometry relative="1" as="geometry" />
        </mxCell>
        <mxCell id="wpoIIcHl5d0JLE3PpU7M-6" value="login &lt;br&gt;authentication" style="rhombus;whiteSpace=wrap;html=1;fillColor=#dae8fc;strokeColor=#6c8ebf;rounded=0;" vertex="1" parent="1">
          <mxGeometry x="245" y="180" width="150" height="140" as="geometry" />
        </mxCell>
        <mxCell id="wpoIIcHl5d0JLE3PpU7M-8" value="Register" style="whiteSpace=wrap;html=1;fillColor=#fff2cc;strokeColor=#d6b656;rounded=0;" vertex="1" parent="1">
          <mxGeometry x="460" y="220" width="120" height="60" as="geometry" />
        </mxCell>
        <mxCell id="wpoIIcHl5d0JLE3PpU7M-13" value="" style="edgeStyle=orthogonalEdgeStyle;rounded=0;orthogonalLoop=1;jettySize=auto;html=1;" edge="1" parent="1" source="wpoIIcHl5d0JLE3PpU7M-10" target="wpoIIcHl5d0JLE3PpU7M-12">
          <mxGeometry relative="1" as="geometry" />
        </mxCell>
        <mxCell id="wpoIIcHl5d0JLE3PpU7M-16" value="" style="edgeStyle=orthogonalEdgeStyle;rounded=0;orthogonalLoop=1;jettySize=auto;html=1;startArrow=none;" edge="1" parent="1" source="wpoIIcHl5d0JLE3PpU7M-25" target="wpoIIcHl5d0JLE3PpU7M-15">
          <mxGeometry relative="1" as="geometry">
            <Array as="points">
              <mxPoint x="220" y="490" />
            </Array>
          </mxGeometry>
        </mxCell>
        <mxCell id="wpoIIcHl5d0JLE3PpU7M-18" value="" style="edgeStyle=orthogonalEdgeStyle;rounded=0;orthogonalLoop=1;jettySize=auto;html=1;" edge="1" parent="1" source="wpoIIcHl5d0JLE3PpU7M-10" target="wpoIIcHl5d0JLE3PpU7M-17">
          <mxGeometry relative="1" as="geometry" />
        </mxCell>
        <mxCell id="wpoIIcHl5d0JLE3PpU7M-22" value="" style="edgeStyle=orthogonalEdgeStyle;rounded=0;orthogonalLoop=1;jettySize=auto;html=1;" edge="1" parent="1" source="wpoIIcHl5d0JLE3PpU7M-10" target="wpoIIcHl5d0JLE3PpU7M-21">
          <mxGeometry relative="1" as="geometry" />
        </mxCell>
        <mxCell id="wpoIIcHl5d0JLE3PpU7M-26" value="" style="edgeStyle=orthogonalEdgeStyle;rounded=0;orthogonalLoop=1;jettySize=auto;html=1;" edge="1" parent="1" source="wpoIIcHl5d0JLE3PpU7M-10" target="wpoIIcHl5d0JLE3PpU7M-25">
          <mxGeometry relative="1" as="geometry" />
        </mxCell>
        <mxCell id="wpoIIcHl5d0JLE3PpU7M-10" value="Dashboard" style="whiteSpace=wrap;html=1;fillColor=#fff2cc;strokeColor=#d6b656;rounded=0;" vertex="1" parent="1">
          <mxGeometry x="260" y="390" width="120" height="60" as="geometry" />
        </mxCell>
        <mxCell id="wpoIIcHl5d0JLE3PpU7M-35" value="" style="edgeStyle=orthogonalEdgeStyle;rounded=0;orthogonalLoop=1;jettySize=auto;html=1;" edge="1" parent="1" source="wpoIIcHl5d0JLE3PpU7M-12" target="wpoIIcHl5d0JLE3PpU7M-34">
          <mxGeometry relative="1" as="geometry" />
        </mxCell>
        <mxCell id="wpoIIcHl5d0JLE3PpU7M-12" value="Profile" style="whiteSpace=wrap;html=1;fillColor=#fff2cc;strokeColor=#d6b656;rounded=0;" vertex="1" parent="1">
          <mxGeometry x="600" y="460" width="120" height="60" as="geometry" />
        </mxCell>
        <mxCell id="wpoIIcHl5d0JLE3PpU7M-15" value="Docter Information" style="whiteSpace=wrap;html=1;fillColor=#fff2cc;strokeColor=#d6b656;rounded=0;" vertex="1" parent="1">
          <mxGeometry x="140" y="740" width="120" height="60" as="geometry" />
        </mxCell>
        <mxCell id="wpoIIcHl5d0JLE3PpU7M-17" value="News feed" style="whiteSpace=wrap;html=1;fillColor=#fff2cc;strokeColor=#d6b656;rounded=0;" vertex="1" parent="1">
          <mxGeometry x="450" y="460" width="120" height="60" as="geometry" />
        </mxCell>
        <mxCell id="wpoIIcHl5d0JLE3PpU7M-21" value="Medical log" style="whiteSpace=wrap;html=1;fillColor=#fff2cc;strokeColor=#d6b656;rounded=0;" vertex="1" parent="1">
          <mxGeometry x="50" y="470" width="120" height="60" as="geometry" />
        </mxCell>
        <mxCell id="wpoIIcHl5d0JLE3PpU7M-30" value="" style="edgeStyle=orthogonalEdgeStyle;rounded=0;orthogonalLoop=1;jettySize=auto;html=1;" edge="1" parent="1" source="wpoIIcHl5d0JLE3PpU7M-25" target="wpoIIcHl5d0JLE3PpU7M-29">
          <mxGeometry relative="1" as="geometry" />
        </mxCell>
        <mxCell id="wpoIIcHl5d0JLE3PpU7M-27" value="No" style="text;html=1;strokeColor=none;fillColor=none;align=center;verticalAlign=middle;whiteSpace=wrap;rounded=0;" vertex="1" parent="1">
          <mxGeometry x="390" y="200" width="60" height="30" as="geometry" />
        </mxCell>
        <mxCell id="wpoIIcHl5d0JLE3PpU7M-28" value="Yes" style="text;html=1;strokeColor=none;fillColor=none;align=center;verticalAlign=middle;whiteSpace=wrap;rounded=0;" vertex="1" parent="1">
          <mxGeometry x="330" y="330" width="60" height="30" as="geometry" />
        </mxCell>
        <mxCell id="wpoIIcHl5d0JLE3PpU7M-33" value="" style="edgeStyle=orthogonalEdgeStyle;rounded=0;orthogonalLoop=1;jettySize=auto;html=1;" edge="1" parent="1" source="wpoIIcHl5d0JLE3PpU7M-29" target="wpoIIcHl5d0JLE3PpU7M-32">
          <mxGeometry relative="1" as="geometry" />
        </mxCell>
        <mxCell id="wpoIIcHl5d0JLE3PpU7M-40" value="" style="edgeStyle=orthogonalEdgeStyle;rounded=0;orthogonalLoop=1;jettySize=auto;html=1;" edge="1" parent="1" source="wpoIIcHl5d0JLE3PpU7M-29" target="wpoIIcHl5d0JLE3PpU7M-39">
          <mxGeometry relative="1" as="geometry" />
        </mxCell>
        <mxCell id="wpoIIcHl5d0JLE3PpU7M-29" value="Booking" style="whiteSpace=wrap;html=1;fillColor=#fff2cc;strokeColor=#d6b656;rounded=0;" vertex="1" parent="1">
          <mxGeometry x="260" y="600" width="120" height="60" as="geometry" />
        </mxCell>
        <mxCell id="wpoIIcHl5d0JLE3PpU7M-25" value="hospital info" style="whiteSpace=wrap;html=1;fillColor=#fff2cc;strokeColor=#d6b656;rounded=0;" vertex="1" parent="1">
          <mxGeometry x="260" y="470" width="120" height="60" as="geometry" />
        </mxCell>
        <mxCell id="wpoIIcHl5d0JLE3PpU7M-31" value="" style="edgeStyle=orthogonalEdgeStyle;rounded=0;orthogonalLoop=1;jettySize=auto;html=1;endArrow=none;" edge="1" parent="1" source="wpoIIcHl5d0JLE3PpU7M-10" target="wpoIIcHl5d0JLE3PpU7M-25">
          <mxGeometry relative="1" as="geometry">
            <mxPoint x="320" y="450" as="sourcePoint" />
            <mxPoint x="220" y="600" as="targetPoint" />
            <Array as="points">
              <mxPoint x="320" y="490" />
            </Array>
          </mxGeometry>
        </mxCell>
        <mxCell id="wpoIIcHl5d0JLE3PpU7M-49" value="" style="edgeStyle=orthogonalEdgeStyle;rounded=0;orthogonalLoop=1;jettySize=auto;html=1;" edge="1" parent="1" source="wpoIIcHl5d0JLE3PpU7M-32" target="wpoIIcHl5d0JLE3PpU7M-48">
          <mxGeometry relative="1" as="geometry" />
        </mxCell>
        <mxCell id="wpoIIcHl5d0JLE3PpU7M-32" value="select slot and date" style="whiteSpace=wrap;html=1;fillColor=#fff2cc;strokeColor=#d6b656;rounded=0;" vertex="1" parent="1">
          <mxGeometry x="420" y="600" width="120" height="60" as="geometry" />
        </mxCell>
        <mxCell id="wpoIIcHl5d0JLE3PpU7M-34" value="show profile details" style="ellipse;whiteSpace=wrap;html=1;fillColor=#fff2cc;strokeColor=#d6b656;rounded=0;" vertex="1" parent="1">
          <mxGeometry x="600" y="540" width="120" height="60" as="geometry" />
        </mxCell>
        <mxCell id="wpoIIcHl5d0JLE3PpU7M-42" value="" style="edgeStyle=orthogonalEdgeStyle;rounded=0;orthogonalLoop=1;jettySize=auto;html=1;" edge="1" parent="1" source="wpoIIcHl5d0JLE3PpU7M-39" target="wpoIIcHl5d0JLE3PpU7M-41">
          <mxGeometry relative="1" as="geometry" />
        </mxCell>
        <mxCell id="wpoIIcHl5d0JLE3PpU7M-39" value="checkout" style="whiteSpace=wrap;html=1;fillColor=#fff2cc;strokeColor=#d6b656;rounded=0;" vertex="1" parent="1">
          <mxGeometry x="354" y="710" width="120" height="60" as="geometry" />
        </mxCell>
        <mxCell id="wpoIIcHl5d0JLE3PpU7M-44" style="edgeStyle=orthogonalEdgeStyle;rounded=0;orthogonalLoop=1;jettySize=auto;html=1;entryX=1;entryY=0.5;entryDx=0;entryDy=0;" edge="1" parent="1" source="wpoIIcHl5d0JLE3PpU7M-41" target="wpoIIcHl5d0JLE3PpU7M-39">
          <mxGeometry relative="1" as="geometry">
            <mxPoint x="630" y="840" as="targetPoint" />
            <Array as="points">
              <mxPoint x="494" y="880" />
              <mxPoint x="494" y="740" />
            </Array>
          </mxGeometry>
        </mxCell>
        <mxCell id="wpoIIcHl5d0JLE3PpU7M-41" value="booked and &lt;br&gt;occupied" style="rhombus;whiteSpace=wrap;html=1;fillColor=#fff2cc;strokeColor=#d6b656;rounded=0;" vertex="1" parent="1">
          <mxGeometry x="356" y="830" width="116" height="100" as="geometry" />
        </mxCell>
        <mxCell id="wpoIIcHl5d0JLE3PpU7M-48" value="E-prescription" style="whiteSpace=wrap;html=1;fillColor=#fff2cc;strokeColor=#d6b656;rounded=0;" vertex="1" parent="1">
          <mxGeometry x="600" y="710" width="120" height="60" as="geometry" />
        </mxCell>
      </root>
    </mxGraphModel>
  </diagram>
</mxfile>
